<?xml version="1.0" encoding="utf-8"?>
<!-- Generator: Adobe Illustrator 23.0.0, SVG Export Plug-In . SVG Version: 6.00 Build 0)  -->
<svg version="1.1" id="Layer_1" xmlns="http://www.w3.org/2000/svg" xmlns:xlink="http://www.w3.org/1999/xlink" x="0px" y="0px"
	 viewBox="0 0 160 140" style="enable-background:new 0 0 160 140;" xml:space="preserve">
<style type="text/css">
	.st0{fill:#E9EAED;}
	.st1{fill:#A8B6C0;}
</style>
<rect class="st0" width="160" height="140"/>
<g>
	<path class="st1" d="M13,99.6c-1.4,0-2.6-1.2-2.6-2.6V43c0-1.5,1.2-2.6,2.6-2.6h29c1.4,0,2.6,1.2,2.6,2.6v54c0,1.4-1.2,2.6-2.6,2.6
		H13z"/>
	<path class="st0" d="M42,40.8c1.2,0,2.3,1,2.3,2.3v54c0,1.2-1,2.3-2.3,2.3H13c-1.2,0-2.3-1-2.3-2.3V43c0-1.2,1-2.3,2.3-2.3H42
		 M42,40H13c-1.7,0-3,1.3-3,3v54c0,1.7,1.3,3,3,3h29c1.7,0,3-1.3,3-3V43C45,41.3,43.7,40,42,40L42,40z"/>
</g>
<g>
	<path class="st1" d="M48,99.6c-1.4,0-2.6-1.2-2.6-2.6V43c0-1.5,1.2-2.6,2.6-2.6h29c1.4,0,2.6,1.2,2.6,2.6v54c0,1.4-1.2,2.6-2.6,2.6
		H48z"/>
	<path class="st0" d="M77,40.8c1.2,0,2.3,1,2.3,2.3v54c0,1.2-1,2.3-2.3,2.3H48c-1.2,0-2.3-1-2.3-2.3V43c0-1.2,1-2.3,2.3-2.3H77
		 M77,40H48c-1.7,0-3,1.3-3,3v54c0,1.7,1.3,3,3,3h29c1.7,0,3-1.3,3-3V43C80,41.3,78.7,40,77,40L77,40z"/>
</g>
<g>
	<path class="st1" d="M83,69.6c-1.4,0-2.6-1.2-2.6-2.6V43c0-1.5,1.2-2.6,2.6-2.6h64c1.4,0,2.6,1.2,2.6,2.6v24c0,1.4-1.2,2.6-2.6,2.6
		H83z"/>
	<path class="st0" d="M147,40.8c1.2,0,2.3,1,2.3,2.3v24c0,1.2-1,2.3-2.3,2.3H83c-1.2,0-2.3-1-2.3-2.3V43c0-1.2,1-2.3,2.3-2.3H147
		 M147,40H83c-1.7,0-3,1.3-3,3v24c0,1.7,1.3,3,3,3h64c1.7,0,3-1.3,3-3V43C150,41.3,148.7,40,147,40L147,40z"/>
</g>
<g>
	<path class="st1" d="M83,99.6c-1.4,0-2.6-1.2-2.6-2.6V73c0-1.4,1.2-2.6,2.6-2.6h29c1.4,0,2.6,1.2,2.6,2.6v24c0,1.4-1.2,2.6-2.6,2.6
		H83z"/>
	<path class="st0" d="M112,70.8c1.2,0,2.3,1,2.3,2.3v24c0,1.2-1,2.3-2.3,2.3H83c-1.2,0-2.3-1-2.3-2.3V73c0-1.2,1-2.3,2.3-2.3H112
		 M112,70H83c-1.7,0-3,1.3-3,3v24c0,1.7,1.3,3,3,3h29c1.7,0,3-1.3,3-3V73C115,71.3,113.7,70,112,70L112,70z"/>
</g>
<g>
	<path class="st1" d="M118,99.6c-1.4,0-2.6-1.2-2.6-2.6V73c0-1.4,1.2-2.6,2.6-2.6h29c1.4,0,2.6,1.2,2.6,2.6v24
		c0,1.4-1.2,2.6-2.6,2.6H118z"/>
	<path class="st0" d="M147,70.8c1.2,0,2.3,1,2.3,2.3v24c0,1.2-1,2.3-2.3,2.3h-29c-1.2,0-2.3-1-2.3-2.3V73c0-1.2,1-2.3,2.3-2.3H147
		 M147,70h-29c-1.7,0-3,1.3-3,3v24c0,1.7,1.3,3,3,3h29c1.7,0,3-1.3,3-3V73C150,71.3,148.7,70,147,70L147,70z"/>
</g>
</svg>
