<?xml version="1.0" encoding="utf-8"?>
<!-- Generator: Adobe Illustrator 23.0.0, SVG Export Plug-In . SVG Version: 6.00 Build 0)  -->
<svg version="1.1" id="Layer_1" xmlns="http://www.w3.org/2000/svg" xmlns:xlink="http://www.w3.org/1999/xlink" x="0px" y="0px"
	 viewBox="0 0 160 140" style="enable-background:new 0 0 160 140;" xml:space="preserve">
<style type="text/css">
	.st0{fill:#E9EAED;}
	.st1{fill:#A8B6C0;}
</style>
<rect class="st0" width="160" height="140"/>
<path class="st1" d="M59.3,54.1c4.3-3.4,9.8-5.9,16.5-5.9c7.9,0,14.1,3.6,18.7,7.8c4.5,4.2,7.6,9.2,9,12.7c0.3,0.8,0.3,1.6,0,2.4
	c-1.3,3.1-3.9,7.6-7.8,11.5l10.2,8c1,0.8,1.2,2.3,0.4,3.3c-0.8,1-2.3,1.2-3.3,0.4L45.5,49.3c-1-0.8-1.2-2.3-0.4-3.3
	c0.8-1,2.3-1.2,3.3-0.4L59.3,54.1z M66.3,59.6l8.8,6.9c0.4-0.8,0.6-1.8,0.6-2.8c0-1-0.4-2.1-0.8-3c0.3,0,0.5-0.1,0.8-0.1
	c5.2,0,9.3,4.2,9.3,9.3c0,1.4-0.3,2.7-0.9,3.8l3.8,2.9c1.1-2,1.7-4.3,1.7-6.8c0-7.6-6.3-14-14-14C72.1,55.9,68.8,57.4,66.3,59.6z
	 M75.7,91.8c-7.9,0-14.1-3.6-18.7-7.8c-4.5-4.3-7.6-9.3-9-12.7c-0.3-0.8-0.3-1.6,0-2.4c0.9-2.2,2.5-5.1,4.7-8l9.2,7.2
	c-0.1,0.6-0.1,1.3-0.1,1.9c0,7.8,6.3,14.1,14,14.1c1.8,0,3.6-0.3,5.2-1l7.1,5.6C84.5,90.5,80.4,91.8,75.7,91.8L75.7,91.8z"/>
</svg>
