<?xml version="1.0" encoding="utf-8"?>
<!-- Generator: Adobe Illustrator 23.0.0, SVG Export Plug-In . SVG Version: 6.00 Build 0)  -->
<svg version="1.1" id="Layer_1" xmlns="http://www.w3.org/2000/svg" xmlns:xlink="http://www.w3.org/1999/xlink" x="0px" y="0px"
	 viewBox="0 0 160 140" style="enable-background:new 0 0 160 140;" xml:space="preserve">
<style type="text/css">
	.st0{fill:#E9EAED;}
	.st1{fill:#A8B6C0;}
</style>
<rect class="st0" width="160" height="140"/>
<g>
	<path class="st1" d="M83,69.63c-1.45,0-2.63-1.18-2.63-2.63V43c0-1.45,1.18-2.63,2.63-2.63h29c1.45,0,2.63,1.18,2.63,2.63v24
		c0,1.45-1.18,2.63-2.63,2.63H83z"/>
	<path class="st0" d="M112,40.75c1.24,0,2.25,1.01,2.25,2.25v24c0,1.24-1.01,2.25-2.25,2.25H83c-1.24,0-2.25-1.01-2.25-2.25V43
		c0-1.24,1.01-2.25,2.25-2.25H112 M112,40H83c-1.66,0-3,1.34-3,3v24c0,1.66,1.34,3,3,3h29c1.66,0,3-1.34,3-3V43
		C115,41.34,113.66,40,112,40L112,40z"/>
</g>
<g>
	<path class="st1" d="M83,99.63c-1.45,0-2.63-1.18-2.63-2.63V73c0-1.45,1.18-2.63,2.63-2.63h29c1.45,0,2.63,1.18,2.63,2.63v24
		c0,1.45-1.18,2.63-2.63,2.63H83z"/>
	<path class="st0" d="M112,70.75c1.24,0,2.25,1.01,2.25,2.25v24c0,1.24-1.01,2.25-2.25,2.25H83c-1.24,0-2.25-1.01-2.25-2.25V73
		c0-1.24,1.01-2.25,2.25-2.25H112 M112,70H83c-1.66,0-3,1.34-3,3v24c0,1.66,1.34,3,3,3h29c1.66,0,3-1.34,3-3V73
		C115,71.34,113.66,70,112,70L112,70z"/>
</g>
<g>
	<path class="st1" d="M13,99.63c-1.45,0-2.63-1.18-2.63-2.63V43c0-1.45,1.18-2.63,2.63-2.63h64c1.45,0,2.63,1.18,2.63,2.63v54
		c0,1.45-1.18,2.63-2.63,2.63H13z"/>
	<path class="st0" d="M77,40.75c1.24,0,2.25,1.01,2.25,2.25v54c0,1.24-1.01,2.25-2.25,2.25H13c-1.24,0-2.25-1.01-2.25-2.25V43
		c0-1.24,1.01-2.25,2.25-2.25H77 M77,40H13c-1.66,0-3,1.34-3,3v54c0,1.66,1.34,3,3,3h64c1.66,0,3-1.34,3-3V43
		C80,41.34,78.66,40,77,40L77,40z"/>
</g>
<g>
	<path class="st1" d="M118,69.63c-1.45,0-2.63-1.18-2.63-2.63V43c0-1.45,1.18-2.63,2.63-2.63h29c1.45,0,2.63,1.18,2.63,2.63v24
		c0,1.45-1.18,2.63-2.63,2.63H118z"/>
	<path class="st0" d="M147,40.75c1.24,0,2.25,1.01,2.25,2.25v24c0,1.24-1.01,2.25-2.25,2.25h-29c-1.24,0-2.25-1.01-2.25-2.25V43
		c0-1.24,1.01-2.25,2.25-2.25H147 M147,40h-29c-1.66,0-3,1.34-3,3v24c0,1.66,1.34,3,3,3h29c1.66,0,3-1.34,3-3V43
		C150,41.34,148.66,40,147,40L147,40z"/>
</g>
<g>
	<path class="st1" d="M118,99.63c-1.45,0-2.63-1.18-2.63-2.63V73c0-1.45,1.18-2.63,2.63-2.63h29c1.45,0,2.63,1.18,2.63,2.63v24
		c0,1.45-1.18,2.63-2.63,2.63H118z"/>
	<path class="st0" d="M147,70.75c1.24,0,2.25,1.01,2.25,2.25v24c0,1.24-1.01,2.25-2.25,2.25h-29c-1.24,0-2.25-1.01-2.25-2.25V73
		c0-1.24,1.01-2.25,2.25-2.25H147 M147,70h-29c-1.66,0-3,1.34-3,3v24c0,1.66,1.34,3,3,3h29c1.66,0,3-1.34,3-3V73
		C150,71.34,148.66,70,147,70L147,70z"/>
</g>
</svg>
