<?xml version="1.0" encoding="utf-8"?>
<!-- Generator: Adobe Illustrator 23.0.0, SVG Export Plug-In . SVG Version: 6.00 Build 0)  -->
<svg version="1.1" id="Layer_1" xmlns="http://www.w3.org/2000/svg" xmlns:xlink="http://www.w3.org/1999/xlink" x="0px" y="0px"
	 viewBox="0 0 160 140" style="enable-background:new 0 0 160 140;" xml:space="preserve">
<style type="text/css">
	.st0{fill:#E9EAED;}
	.st1{fill:#A8B6C0;}
</style>
<rect class="st0" width="160" height="140"/>
<g>
	<path class="st1" d="M13,64.63c-1.45,0-2.63-1.18-2.63-2.63V28c0-1.45,1.18-2.63,2.63-2.63h64c1.45,0,2.63,1.18,2.63,2.63v34
		c0,1.45-1.18,2.63-2.63,2.63H13z"/>
	<path class="st0" d="M77,25.75c1.24,0,2.25,1.01,2.25,2.25v34c0,1.24-1.01,2.25-2.25,2.25H13c-1.24,0-2.25-1.01-2.25-2.25V28
		c0-1.24,1.01-2.25,2.25-2.25H77 M77,25H13c-1.66,0-3,1.34-3,3v34c0,1.66,1.34,3,3,3h64c1.66,0,3-1.34,3-3V28
		C80,26.34,78.66,25,77,25L77,25z"/>
</g>
<g>
	<path class="st1" d="M83,114.63c-1.45,0-2.63-1.18-2.63-2.63V78c0-1.45,1.18-2.63,2.63-2.63h64c1.45,0,2.63,1.18,2.63,2.63v34
		c0,1.45-1.18,2.63-2.63,2.63H83z"/>
	<path class="st0" d="M147,75.75c1.24,0,2.25,1.01,2.25,2.25v34c0,1.24-1.01,2.25-2.25,2.25H83c-1.24,0-2.25-1.01-2.25-2.25V78
		c0-1.24,1.01-2.25,2.25-2.25H147 M147,75H83c-1.66,0-3,1.34-3,3v34c0,1.66,1.34,3,3,3h64c1.66,0,3-1.34,3-3V78
		C150,76.34,148.66,75,147,75L147,75z"/>
</g>
<g>
	<path class="st1" d="M83,74.63c-1.45,0-2.63-1.18-2.63-2.63V28c0-1.45,1.18-2.63,2.63-2.63h29c1.45,0,2.63,1.18,2.63,2.63v44
		c0,1.45-1.18,2.63-2.63,2.63H83z"/>
	<path class="st0" d="M112,25.75c1.24,0,2.25,1.01,2.25,2.25v44c0,1.24-1.01,2.25-2.25,2.25H83c-1.24,0-2.25-1.01-2.25-2.25V28
		c0-1.24,1.01-2.25,2.25-2.25H112 M112,25H83c-1.66,0-3,1.34-3,3v44c0,1.66,1.34,3,3,3h29c1.66,0,3-1.34,3-3V28
		C115,26.34,113.66,25,112,25L112,25z"/>
</g>
<g>
	<path class="st1" d="M118,74.63c-1.45,0-2.63-1.18-2.63-2.63V28c0-1.45,1.18-2.63,2.63-2.63h29c1.45,0,2.63,1.18,2.63,2.63v44
		c0,1.45-1.18,2.63-2.63,2.63H118z"/>
	<path class="st0" d="M147,25.75c1.24,0,2.25,1.01,2.25,2.25v44c0,1.24-1.01,2.25-2.25,2.25h-29c-1.24,0-2.25-1.01-2.25-2.25V28
		c0-1.24,1.01-2.25,2.25-2.25H147 M147,25h-29c-1.66,0-3,1.34-3,3v44c0,1.66,1.34,3,3,3h29c1.66,0,3-1.34,3-3V28
		C150,26.34,148.66,25,147,25L147,25z"/>
</g>
<g>
	<path class="st1" d="M13,114.63c-1.45,0-2.63-1.18-2.63-2.63V68c0-1.45,1.18-2.63,2.63-2.63h29c1.45,0,2.63,1.18,2.63,2.63v44
		c0,1.45-1.18,2.63-2.63,2.63H13z"/>
	<path class="st0" d="M42,65.75c1.24,0,2.25,1.01,2.25,2.25v44c0,1.24-1.01,2.25-2.25,2.25H13c-1.24,0-2.25-1.01-2.25-2.25V68
		c0-1.24,1.01-2.25,2.25-2.25H42 M42,65H13c-1.66,0-3,1.34-3,3v44c0,1.66,1.34,3,3,3h29c1.66,0,3-1.34,3-3V68
		C45,66.34,43.66,65,42,65L42,65z"/>
</g>
<g>
	<path class="st1" d="M48,114.63c-1.45,0-2.63-1.18-2.63-2.63V68c0-1.45,1.18-2.63,2.63-2.63h29c1.45,0,2.63,1.18,2.63,2.63v44
		c0,1.45-1.18,2.63-2.63,2.63H48z"/>
	<path class="st0" d="M77,65.75c1.24,0,2.25,1.01,2.25,2.25v44c0,1.24-1.01,2.25-2.25,2.25H48c-1.24,0-2.25-1.01-2.25-2.25V68
		c0-1.24,1.01-2.25,2.25-2.25H77 M77,65H48c-1.66,0-3,1.34-3,3v44c0,1.66,1.34,3,3,3h29c1.66,0,3-1.34,3-3V68
		C80,66.34,78.66,65,77,65L77,65z"/>
</g>
</svg>
